<svg xmlns="http://www.w3.org/2000/svg" width="168" height="249" viewBox="0 0 168 249">
  <g id="Polygon_1" data-name="Polygon 1" transform="translate(168) rotate(90)" fill="#fff">
    <path d="M 223.1854553222656 167.5000152587891 L 25.81456565856934 167.5000152587891 C 23.37547874450684 167.5000152587891 21.03791999816895 166.8241882324219 19.05456733703613 165.5455627441406 C 17.18991851806641 164.343505859375 15.66697788238525 162.6410369873047 14.65030193328857 160.6222381591797 C 13.63365459442139 158.6034545898438 13.17262554168701 156.3661804199219 13.31703662872314 154.1523895263672 C 13.47065448760986 151.7975921630859 14.31947803497314 149.5171203613281 15.77168369293213 147.5575103759766 L 114.4571228027344 14.39162635803223 C 116.8390045166016 11.17750835418701 120.4995040893555 9.334096908569336 124.5000076293945 9.334096908569336 C 128.5005035400391 9.334096908569336 132.1609802246094 11.17750835418701 134.5428924560547 14.39162635803223 L 233.2283630371094 147.5575103759766 C 234.6805725097656 149.5171203613281 235.5293579101562 151.7975921630859 235.6829833984375 154.1523895263672 C 235.827392578125 156.3661804199219 235.3663635253906 158.6034545898438 234.3497161865234 160.6222381591797 C 233.3330383300781 162.6410369873047 231.8100891113281 164.343505859375 229.9454498291016 165.5455627441406 C 227.9620971679688 166.8241882324219 225.6245422363281 167.5000152587891 223.1854553222656 167.5000152587891 Z" stroke="none"/>
    <path d="M 124.4999771118164 9.834091186523438 C 120.6595001220703 9.834091186523438 117.1454162597656 11.60374450683594 114.8588256835938 14.68930053710938 L 16.17338562011719 147.8552093505859 C 14.77850341796875 149.7374572753906 13.96333312988281 151.9262390136719 13.81597900390625 154.1849212646484 C 13.6773681640625 156.3098602294922 14.12026977539062 158.4580993652344 15.09689331054688 160.3973693847656 C 16.07347106933594 162.3365936279297 17.53572082519531 163.9715118408203 19.32548522949219 165.1253356933594 C 21.22789001464844 166.3517456054688 23.4718017578125 167.0000152587891 25.81455993652344 167.0000152587891 L 223.1854553222656 167.0000152587891 C 225.5282135009766 167.0000152587891 227.7721252441406 166.3517456054688 229.6745300292969 165.1253356933594 C 231.4642944335938 163.9715118408203 232.9265441894531 162.3365936279297 233.9031219482422 160.3973693847656 C 234.8797149658203 158.4580993652344 235.3226623535156 156.3098602294922 235.1840362548828 154.1849212646484 C 235.0366821289062 151.9262390136719 234.2215118408203 149.7374572753906 232.8265991210938 147.8552093505859 L 134.1411437988281 14.68930053710938 C 131.8545379638672 11.60374450683594 128.3404541015625 9.834091186523438 124.4999771118164 9.834091186523438 M 124.4999923706055 8.834091186523438 C 128.4230041503906 8.834091186523438 132.3459930419922 10.58735656738281 134.9445953369141 14.09388732910156 L 233.6300354003906 147.2597961425781 C 239.9878540039062 155.8390350341797 233.8637084960938 168.0000152587891 223.1854553222656 168.0000152587891 L 25.81455993652344 168.0000152587891 C 15.13630676269531 168.0000152587891 9.012161254882812 155.8390350341797 15.36994934082031 147.2597961425781 L 114.0553894042969 14.09388732910156 C 116.6539916992188 10.58735656738281 120.5769958496094 8.834091186523438 124.4999923706055 8.834091186523438 Z" stroke="none" fill="#fff"/>
  </g>
</svg>
