<svg width="1600" height="1200" viewBox="0 0 1600 1200" fill="none" xmlns="http://www.w3.org/2000/svg">
<mask id="mask0" mask-type="alpha" maskUnits="userSpaceOnUse" x="0" y="0" width="1600" height="1200">
<path d="M0 0H1600V1200H0V0Z" fill="white"/>
</mask>
<g mask="url(#mask0)">
<path d="M0 0H1600V1200H0V0Z" fill="#40403E"/>
<path fill-rule="evenodd" clip-rule="evenodd" d="M1600 0V1200H1009.94L356 396.07L865.25 0H1600Z" fill="#232429"/>
<path d="M450 663C587.519 663 699 551.519 699 414C699 276.481 587.519 165 450 165C312.481 165 201 276.481 201 414C201 551.519 312.481 663 450 663Z" fill="#97B48A"/>
<path fill-rule="evenodd" clip-rule="evenodd" d="M952.395 414.643L1461.38 119.766L1501.56 189.122L992.576 483.999L952.395 414.643Z" fill="#BD2C16"/>
<path fill-rule="evenodd" clip-rule="evenodd" d="M873.219 896.332L667.313 642.857L617.688 675.817L823.72 935.785L873.219 896.332Z" fill="#BD2C16"/>
<path fill-rule="evenodd" clip-rule="evenodd" d="M171.223 983.293L414.414 805.623L392.074 773.476L145.57 932.898L171.223 983.293Z" fill="#232429"/>
<path fill-rule="evenodd" clip-rule="evenodd" d="M611.926 829L702.681 964.044L681.757 978.105L591.002 843.062L611.926 829Z" fill="#60BEBF"/>
<path fill-rule="evenodd" clip-rule="evenodd" d="M826.604 692.001L732.011 576.812L691.734 600L783.91 725.903L826.604 692.001Z" fill="#3A8EAA"/>
<path fill-rule="evenodd" clip-rule="evenodd" d="M1492.54 -172.315L511.51 513.906L559.876 577.108L1576.96 -67.4711L1492.54 -172.315Z" fill="#2A3E4C"/>
<path fill-rule="evenodd" clip-rule="evenodd" d="M573.375 589.383L912.856 403.743L937.305 447.777L601.879 631.603L573.375 589.383Z" fill="#CC9711"/>
<path fill-rule="evenodd" clip-rule="evenodd" d="M113.999 1107.67L405.161 863L437.563 901.559L146.402 1146.23L113.999 1107.67Z" fill="#232429"/>
<path fill-rule="evenodd" clip-rule="evenodd" d="M315.848 909.492L437.234 812.551L460.308 837.944L338.922 934.884L315.848 909.492Z" fill="#CC9711"/>
<path d="M1116.34 452.615L1453.04 267.763L1465.98 293.072L1129.28 477.925L1116.34 452.615Z" fill="#2D2445"/>
<path fill-rule="evenodd" clip-rule="evenodd" d="M1145.03 241.089L1470.3 44.9793L1484.98 69.3241L1159.7 265.434L1145.03 241.089Z" fill="#667E7D"/>
<path fill-rule="evenodd" clip-rule="evenodd" d="M1063.14 531.044L1401.38 358.065L1404.66 364.462L1066.42 537.441L1063.14 531.044Z" fill="#667E7D"/>
<path d="M238.871 222L828.446 964.331L811.698 977.632L222.123 235.301L238.871 222Z" fill="#2D2445"/>
<path fill-rule="evenodd" clip-rule="evenodd" d="M624.656 773.079L228.269 292.369L166.208 332.767L556.275 824.416L624.656 773.079Z" fill="#667E7D"/>
<path d="M1001.39 760.097C1022.47 755.04 1035.49 733.941 1030.46 712.97C1025.43 692 1004.26 679.1 983.175 684.157C962.092 689.215 949.078 710.314 954.108 731.284C959.138 752.254 980.307 765.154 1001.39 760.097Z" fill="#849C9B"/>
<path d="M187.553 753.25C225.522 744.142 248.958 706.145 239.9 668.38C230.841 630.615 192.718 607.383 154.749 616.491C116.78 625.598 93.3436 663.596 102.402 701.361C111.461 739.125 149.584 762.357 187.553 753.25Z" fill="#232429"/>
<path d="M493.066 452.672C509.584 448.71 519.781 432.179 515.84 415.749C511.899 399.319 495.313 389.212 478.794 393.174C462.276 397.136 452.079 413.667 456.02 430.097C459.961 446.527 476.547 456.634 493.066 452.672Z" fill="black"/>
<path d="M326.002 751.857C342.441 747.914 352.587 731.464 348.666 715.114C344.744 698.764 328.238 688.706 311.8 692.649C295.361 696.592 285.214 713.043 289.136 729.393C293.058 745.743 309.563 755.8 326.002 751.857Z" fill="#667E7D"/>
<path d="M508.128 485.163L787.934 291.96L785.562 288.525L505.755 481.727L508.128 485.163ZM1075.33 911.576L1220.04 1081.24L1225.37 1076.7L1080.65 907.033L1075.33 911.576Z" fill="#2D2445"/>
<path d="M164.371 70.614L309.165 251.423L312.423 248.814L167.63 68.0038L164.371 70.614Z" fill="black"/>
<path d="M262.116 945.804L78.1709 1094.54L80.7959 1097.78L264.741 949.05L262.116 945.804Z" fill="black"/>
<path fill-rule="evenodd" clip-rule="evenodd" d="M1204.59 764.61L1165.8 719.98L1169.27 716.964L1208.06 761.594L1252.69 722.798L1255.71 726.267L1211.08 765.063L1249.88 809.693L1246.41 812.709L1207.61 768.079L1162.98 806.875L1159.96 803.406L1204.59 764.61Z" fill="#BD2C16"/>
<path fill-rule="evenodd" clip-rule="evenodd" d="M169.961 680.514L149.983 657.531L151.77 655.978L171.748 678.961L194.73 658.982L196.283 660.769L173.301 680.747L193.279 703.73L191.493 705.282L171.514 682.3L148.532 702.278L146.979 700.492L169.961 680.514Z" fill="#BD2C16"/>
</g>
</svg>
