<svg xmlns="http://www.w3.org/2000/svg" xmlns:xlink="http://www.w3.org/1999/xlink" width="1600" height="1200" xmlns:v="https://vecta.io/nano"><style><![CDATA[.B{mask:url(#B)}.C{fill:#eae8e4}.D{fill:#bfcbba}.E{fill:#dc4618}.F{fill:#28203d}.G{fill-rule:nonzero}]]></style><defs><path id="A" d="M.702 0h1600v1200H.702z"/></defs><g transform="translate(-.702)" fill-rule="evenodd"><mask id="B" fill="#fff"><use xlink:href="#A"/></mask><use fill="#dcdcdb" xlink:href="#A"/><path d="M1600.702 0v1200H1010.64L356.702 396.07 865.952 0z" class="B C"/><circle cx="450.702" cy="414" r="249" class="B D"/><g class="E B"><path transform="matrix(.865277 -.501294 .501294 .865277 14.064571 656.098719)" d="M933.563 261.805h588.232v80.155H933.563z"/><path transform="matrix(.723492 .690333 -.690333 .723492 749.682142 -296.179188)" d="M913.115 777.006l-323.953-41.243-13.15 58.103 328.527 45.855z"/></g><path transform="matrix(-.919331 .393485 -.393485 -.919331 890.883149 1572.500804)" d="M429.116 824.576l-293.483 67.646 7.888 38.344L432.87 881z" class="B C"/><path fill="#60bebf" transform="matrix(.55779 .829982 -.829982 .55779 1036.282381 -137.888359)" d="M566.19 890.947h162.706v25.21H566.19z" class="B"/><path fill="#3a8eaa" transform="matrix(.5748 .818294 -.818294 .5748 853.178207 -347.315446)" d="M835.595 618.57l-148.63 11.194-4.177 46.287 156.008-3.058z" class="B"/><path fill="#2a3e4c" transform="matrix(.835878 -.548915 .548915 .835878 55.438908 602.522489)" d="M1627.15 141.563l-1196.7 35.094 5.735 79.378 1203.98 19.505z" class="B"/><path fill="#e5ab17" transform="matrix(.874268 -.485444 .485444 .874268 -156.680629 432.21676)" d="M562.582 492.147l386.915 2.5v50.366l-382.49-2.117z" class="B"/><path transform="matrix(.765578 -.643343 .643343 .765578 -581.499334 413.378612)" d="M86.326 979.433h380.316v50.366H86.326z" class="B C"/><path fill="#e5ab17" transform="matrix(.740091 -.672507 .672507 .740091 -486.531869 488.543708)" d="M311.263 851.618l155.03 9.888v34.31l-155.03-9.888z" class="B"/><path transform="matrix(.890327 -.455322 .455322 .890327 -28.081911 629.103632)" d="M1099.89 364.266l383.944-11.27v28.427l-383.944 11.27z" class="B F G"/><path transform="matrix(.856396 -.516319 .516319 .856396 108.804165 701.612574)" d="M1125.795 140.993h379.823v28.427h-379.823z" class="B D"/><path fill="#849c9b" transform="matrix(.890327 -.455322 .455322 .890327 -68.469382 611.248509)" d="M1044.65 444.16h379.905v7.185H1044.65z" class="B"/><path transform="matrix(.621932 .783072 -.783072 .621932 668.557417 -185.113574)" d="M52 589.122h947.973v21.387H52z" class="B F G"/><g fill="#849c9b" class="B"><path transform="matrix(.587557 .809183 -.809183 .587557 611.408315 -92.591756)" d="M708.682 497.343L86.8 535.648l-3.775 73.955 627.02-26.764z"/><ellipse transform="matrix(.972417 -.233249 .233249 .972417 -141.045975 251.531319)" cx="992.985" cy="722.127" rx="39.258" ry="39.047"/></g><ellipse transform="matrix(.972417 -.233249 .233249 .972417 -155.005038 58.975332)" cx="171.853" cy="684.87" rx="70.699" ry="70.319" class="B C"/><ellipse transform="matrix(.972417 -.233249 .233249 .972417 -85.22375 125.171951)" cx="486.632" cy="422.923" rx="30.758" ry="30.593" class="B E"/><ellipse transform="matrix(.972417 -.233249 .233249 .972417 -159.64934 94.469039)" cx="319.603" cy="722.253" rx="30.609" ry="30.444" class="B D"/><g class="F G B"><path d="M508.83 485.163L788.636 291.96l-2.372-3.435-279.807 193.202zm567.2 426.413l144.715 169.666 5.326-4.543-144.715-169.666z"/><path transform="matrix(.972417 -.233249 .233249 .972417 -30.658139 60.175011)" d="M187.897 55.805L286.524 265.4l3.777-1.777-98.626-209.596z"/><path d="M262.818 945.804L78.873 1094.538l2.625 3.246L265.443 949.05z"/></g><g class="E B"><path d="M1206.24 762.538v-59.135h4.597v59.135h59.135v4.597h-59.135v59.135h-4.597v-59.135h-59.135v-4.597h59.135z" transform="matrix(.75471 -.656059 .656059 .75471 -205.334825 980.479287)"/><path d="M171.15 679.447v-30.452h2.367v30.452h30.452v2.367h-30.452v30.452h-2.367v-30.452h-30.452v-2.367h30.452z" transform="matrix(.75471 -.656059 .656059 .75471 -404.262479 280.012842)"/></g></g></svg>