<svg xmlns="http://www.w3.org/2000/svg" width="1600" height="1200" xmlns:v="https://vecta.io/nano"><style><![CDATA[.B{stroke:#5acef2}.C{stroke:#ff8062}.D{stroke:#5be7c3}.E{stroke:#f1b170}]]></style><g fill="none" stroke-width="5"><path d="M547.837 374.09c-.108-28.242-43.182-60.002-61.582-76.376-36.38-32.385-74.22-62.29-111.706-92.675s-75.076-60.685-110.823-94.043c-23.2-21.653-50.482-46.04-66.224-76.96-33.534-65.89 72.195-56.106 99.582-57.547 69.67-3.682 149.585-2 214.89-36.314 38.985-20.484 54.53-54.838 46.158-104.906-2.7-16.283-10.688-35.02-3.92-50.884 7.226-16.942 23.85-26.72 37.65-33.275 50.327-23.885 108.19-26.653 161.44-29.65 57.42-3.295 115.377-2.33 172.39-2.586 24.175-.107 49.423-10.707 72.445-19.322 30.18-11.292 60.003-23.976 89.933-36.24 65.846-26.916 133.696-55.266 203.36-62.102 43.627-4.283 91.3 1.507 125.2 38.76 17.016 18.705 25.923 46.51 35.76 71.21l36.023 89.34c40.84 94.594 99.15 187.03 193.793 191.676 14.318.7 28.38-1.58 42.63-2 9.075-.264 17.15 2.413 20.525 14.002 8.48 29.066-18.177 74.95-29.107 98.013-23.932 50.48-50.92 98.696-76.203 148.164-16.726 32.715-45.678 77.422-45.982 117.17-.27 35.416 38.324 61.015 59.335 78.46 19.688 16.333 55.36 39.19 57.52 72.414 1.046 16.1-7.658 29.46-16.747 39.823-15.93 18.12-34.282 30.903-48.613 51.576-23.5 33.917-43.135 80.584-39.943 126.288 2.213 31.67 17.016 52.408 35.848 72.233 7.914 8.335 14.338 14.232 14.756 27.765.675 21.49-6.22 44.23-11.902 64.153-20.323 71.302-49.187 140.248-81.297 204.624-16.045 32.17-33.378 64.243-54.652 91.687-13.933 18.02-32.724 39.47-53.977 39.444-24.607 0-50.644-10.84-74.563-18.944-44.673-15.147-88.806-32.657-132.764-50.62-101.658-41.56-202.36-86.487-302.105-134.78C874.704 997.582 802.954 963.46 736.9 918.16c-12.882-8.896-25.04-19.268-36.313-30.977-12.044-12.297-26.99-17.8-42.143-21.9-94.056-25.46-197.1-5.914-291.546 6.342l-71.986 8.4c-20.667 1.87-45.41 7.232-65.495-.824-39.58-15.855-4.98-74.292 9.648-98.103 51.5-83.838 117.948-154.77 179.536-227.183 29.283-34.486 58.788-68.88 86.48-105.318 14.42-18.944 42.85-49.748 42.757-74.506z" class="D"/><path d="M565.584 369.33c-15.786-29.885-43.482-51.973-66.472-72.76-33.084-29.926-67.208-58.19-100.818-87.267-31.78-27.497-63.63-55.307-93.06-86.534-17.946-19.042-40.464-41.814-48.964-69.978C237.83-8.255 337.03 1.007 361.518-.6c60.88-3.952 129.905-4.857 186.228-36.998 35.17-20.07 49.62-53.356 42.118-99.566-2.593-15.988-7.265-29.638-1.35-45.543 6.84-18.408 22.57-29.885 36.993-37.986 45.176-25.38 98.576-30.774 147.547-35.26 50.59-4.635 103.303-7.903 152.267-4.512 19.58 1.35 42.118-6.314 61.495-12.193 29.816-9.056 59.328-19.503 88.996-29.218 60.294-19.758 122.154-38.793 184.878-40.958 45.284-1.564 92.5 6.915 130.175 39.7 38.18 33.235 55.122 84.756 76.295 133.732 36.568 84.673 85.957 187.623 170.557 205.513 12.828 2.717 25.157 1.243 37.972 1.9 6.6.338 14.09 1.408 17.433 9.336 8.676 20.582-15.097 58.213-23.098 73.98-22.105 43.567-46.96 85.003-70.124 127.73-18.4 33.927-41.72 71.625-48.836 111.84-8.636 48.803 47.79 83.53 67.633 117.892 34.4 59.588-30.775 93.54-62.907 121.95-36.9 32.618-67.356 92.124-34.28 142.6 12.653 19.297 28.223 30.8 33.874 55.982 8.838 39.385 2.154 84.393-5.017 123.326-10.803 58.526-27.898 116.42-51.138 169.314-16.65 37.87-44.272 97.253-84.722 92.8-27.23-2.972-54.912-13.83-81.427-23.43-39.7-14.366-78.902-30.74-117.893-47.75-90.008-39.155-179.024-82.327-266.29-129.813-59.544-32.412-225.64-164.868-238.136-169.594-37.263-14.078-79.63-11.6-118.05-9.418-51.104 2.898-101.952 10.406-152.76 17.363-24.185 3.293-48.49 7.32-72.805 8.94-17.305 1.153-40.03 2.14-55.19-10.134-29.586-23.95 3.376-78.746 17.008-101.93 41.76-71.073 94.586-132.62 144.117-195.55 24.307-30.897 48.984-61.745 71.05-95.12 8.9-13.477 31.207-40.538 21.45-58.996z" class="B"/><path d="M587.423 354.003c-43.11-59.803-102.612-104.28-153.966-154.225-25.775-25.076-51.71-50.835-73.942-80.703-11.564-15.53-26.004-35.172-28.232-56.822C325.33 4.337 414.737 12.168 441.498 9.97c51.738-4.266 110.187-7.502 157.125-37.058 28.677-18.068 42.8-47.722 37.44-86.698-2.376-17.294-6.076-31.985 0-48.965 6.157-17.203 18.983-29.34 31.972-38.44 37.325-26.17 83.7-34.538 125.734-40.772 49.298-7.26 98.967-10.096 148.606-8.482 43.475 1.392 86.74-14.263 129.2-24.582 56.234-13.662 113.488-25.594 171.032-23.79 45.447 1.433 91.25 12.7 130.102 42.608 39.48 30.47 63.215 76.075 84.615 125.287 32.35 74.395 72.666 174.088 143.637 202.342 10.322 4.118 19.942 4.57 30.588 5.287 5.17.346 11.848.453 14.413 7.033 6.17 15.844-16.64 46.56-23.007 57.266-20.32 34.175-42.348 66.81-63.174 100.533-19.442 31.482-40.62 64.29-52.697 101.184-19.22 58.757 42.226 93.113 40.505 149.103-1.073 34.76-28.353 59.687-49.956 76.93-26.598 21.205-64.896 35.147-78.208 73.843-9.917 28.823 5.644 45.597 17.626 67.47 20.306 37.058 21.7 87.29 19.577 130.187-2.85 57.966-13.98 116.79-32.93 170.07-8.587 24.153-19.105 49.278-34.59 68.038-14.508 17.582-28.24 22.086-47.627 18.488-59.353-11.035-119.28-41.793-176.196-69.265-71.51-34.52-142.037-72.633-210.457-115.513-46.655-29.243-94.363-60.18-135.313-100.582-10.673-10.533-21.603-21.98-29.407-35.872-5.9-10.442-8.405-19.064-18.35-25.026-29.474-17.664-70.472-13.044-102.052-11.208C619.2 742.31 568.946 750.09 518.76 757.1c-29.285 4.118-84.453 17.07-107.838-14-20.185-26.83 4.172-72.575 16.614-96.2 31.472-59.77 71.957-112.227 109.52-166.24 17.215-24.754 35.104-49.698 49.32-77.22 3.632-7.016 9.45-16.314 10.45-24.837 1.12-9.767-4.11-17.22-9.404-24.6z" class="D"/><path d="M591.13 367.925c-39.836-52.877-87.828-96.317-130.594-145.798-19.175-22.186-38.54-45.46-53.15-72.524-7.86-14.554-16.204-32.875-14.037-50.965 6.218-51.92 79.753-47.23 109.46-50.272 44.143-4.467 94.856-8.967 133.89-36.962 25.57-18.337 35.157-45.418 30.383-80.345-5.125-37.465 6.333-64.662 32.41-85.562 32.692-26.183 73.96-36.855 111.918-44.437 45.733-9.09 92.045-13.12 138.372-12.04 45.055 1.055 88.706-8.16 133.463-14.15 59.342-7.936 120.588-11.85 179.26 4.417 51.084 14.167 97.226 45.385 131.816 93.663 36.13 50.388 54.015 113.87 83.35 169.615 18.297 34.77 43.813 80.765 78.004 94.28 11.404 4.508 32.186-1.574 23.078 20.603-5.206 12.683-14.95 23.81-22.646 34.177-12.437 16.755-25.286 33.048-37.932 49.572-26.953 35.224-55.817 71.197-76.02 112.907-25.454 52.514 12.383 92.93 7.77 146.177-2.478 28.655-18.804 51.525-36.075 69.49-11.174 11.637-23.402 21.716-35.886 31.12-13.038 9.824-28.466 17.307-39.836 30.007-16.204 18.073-9.17 39.468-6.13 62.832a615.52 615.52 0 0 1 3.497 124.181c-3.7 50.758-12.376 102.967-30.653 149.094-7.1 17.958-16.117 36.995-29.492 49.036s-27.2 11.216-42.537 7.6c-45.46-10.714-90.826-35.644-133.95-59.272-53.974-29.578-106.888-62.634-157.42-100.24-34.88-25.96-69.875-54.006-99.056-89.204-8.487-10.244-16.562-21.213-23.09-33.46-4.483-8.398-6.887-19.235-13.382-25.548-20.323-19.705-61.124-13.82-84.958-12.675-47.567 2.283-94.384 13.137-141.9 15.774-25.927 1.442-66.533 5.068-85.573-21.873-17.906-25.326-1.688-65.214 9.014-89.616 21.032-47.98 49.288-90.73 74.614-135.33 10.41-18.353 21.822-37.556 28.567-58.514 5.996-18.675-4.355-32.19-14.564-45.748z" class="B"/><path d="M600.927 368.8c-31.708-46.53-69.933-87.834-101.87-135.12-18.694-27.692-50.888-74.247-36.43-113.288 15.86-42.9 71.147-44.07 103.105-47.526 38.036-4.115 82.704-9.736 115.255-36.523 10.295-8.468 19.065-19.677 22.783-34.44 3.98-15.8-.37-29.626-.938-45.444-1.187-33.182 15.044-59.82 36.525-78.115 30.36-25.865 68.32-38.095 104.178-46.62 40.624-9.616 81.922-14.357 123.304-14.155 39.547.165 78.676-.905 118.264-2.14 51.772-1.646 104.272 1.012 154.492 17.792 49.47 16.54 94.45 47.542 129.78 93.142 34.467 44.497 57.722 98.886 78.09 154.287 11.557 31.445 31.08 78.436 58.646 94.32 12.258 7.07 24.287 6.584 11.253 24.968-16.414 23.15-38.535 41.724-57.547 61.524-27.424 28.573-55.536 57.706-78.555 91.677-14.7 21.693-21.25 42.744-20.24 70.832.783 21.397 4.33 42.57 2.537 64.05-4.203 50.414-36.74 84.986-65.507 117.18-18.505 20.706-35.405 36.498-44.93 65.952-11.266 34.81-15.996 72.683-23.525 108.827-8.27 39.69-17.824 80.98-35.877 115.938-16.07 31.124-35.614 45.08-64.867 36.696-45.626-13.07-90.597-45.262-131.103-75.045-41.227-30.3-81.746-64.37-115.9-106.02-18.445-22.49-31.033-48.9-47.414-73.062-20.603-30.334-67.214-18.846-94.915-16.278-45.983 4.263-190.673 36.16-177.322-67.153 5.573-43.123 27.52-82.92 43.568-120.974 6.652-15.792 16.28-34.745 17.783-52.842 1.64-19.7-13.08-38.432-22.614-52.44z" class="C"/><path d="M617.67 372.74c-24.23-42.165-53.23-82-74.02-127.542-13.488-29.494-26.733-68.9-9.333-100.107 19.638-35.216 62.94-43.425 94.758-47.913 32.782-4.62 71.916-8.506 98.7-35.208 8.524-8.506 15.55-19.975 16.86-33.71 1.26-13.174-2.3-26.348-1.12-39.76 2.644-30.12 17.608-54.936 36.902-72.935 57.073-53.248 142.018-65.088 210.88-66.48 34.468-.692 69.94 2.94 104.63 5.54 45.015 3.376 90.098 10.622 133.03 28.086C1320.242-80.17 1381.422 2.153 1424.15 104.6c13.447 32.244 23.738 67.13 44.813 93.042 10.864 13.38 8.5 22.99-2.617 35.19-17.365 19.07-38.548 33.643-57.822 49.56-27.414 22.635-55.414 45.607-79.658 72.72-16.71 18.69-28.574 36.698-32.175 64.726-2.57 19.984-1.97 40.346-3.514 60.453-2.94 38.197-13.01 76.105-30.833 107.79-14.162 25.113-31.022 47.937-48.448 69.7-22.653 28.333-41.812 57.118-59.015 90.745-22.808 44.512-54.854 126.62-108.576 104.89-59.25-23.977-114.787-84.9-152.802-143.927-12.766-19.82-23.246-44.125-40.463-58.74-25.775-21.844-51.928-21.08-82.585-20.988-45.9.124-145.775 12.285-146.854-71.634-.425-33.248 11.363-64.685 17.008-96.665 6.366-35.817-6.393-59.975-22.943-88.71z" class="E"/><path d="M635.716 376.5c-23.967-54.955-77.712-145.258-36.835-206.368 21.592-32.295 59.783-44.432 91.82-51.664 25.782-5.85 56.875-8.047 76.355-32.846 14.318-18.233 7.962-44.77 13.448-67.594 6.808-28.296 22.436-51.45 41.64-68.853 53.663-48.636 128.278-63.562 192.832-66.738 67.044-3.29 140.916 12.103 204.006 41.716 78.663 36.936 137.596 106.874 178.8 195.44 7.605 16.35 14.514 33.126 21.815 49.673 4.905 11.1 12.18 21.837 16.046 33.513 6.437 19.468-1.147 35.38-13.306 48.068-17.5 18.266-38.974 31.267-58.913 44.975-27.267 18.76-55.14 37.183-80.505 59.193-17.044 14.81-34.885 30.765-40.985 56.46-4.163 17.526-5.027 36.088-4.878 54.24.324 38.92-1.35 70.39-16.235 106.035-24.494 58.518-62.16 111.137-101.95 154.918-31.228 34.36-80.64 87.736-126.14 64.763-40.823-20.57-64.702-69.807-91.598-109.614-13.077-19.352-27.766-37.026-45.027-50.792-21.76-17.353-42.247-24.635-68.03-27.474-43.394-4.78-108.825-6.023-122.24-69.544-4.953-23.442-2.125-47.723-4.723-71.47-3.394-31.398-13.32-58.32-25.41-86.04z" class="D"/><path d="M660.638 378.536c-17.067-60.132-39.488-135.914 1.733-189.357 19.967-25.9 48.052-40.362 75.234-51.178 19.468-7.75 50.378-10.033 62.314-33.863 8.766-17.537 9.98-41.73 17.9-60.52 10.897-25.832 27.404-47.11 46.77-63.764C915.05-63.548 980.763-80.32 1040.7-85.12c130.21-10.42 262.7 72.57 332.378 209.1 20.776 40.7 47.593 84.02 14.02 125.6-36.656 45.362-91.876 66.614-135.625 98.847-16.716 12.306-38.018 27.1-47.344 49.382-5.6 13.394-5.995 30.198-6.25 44.942-.674 37.553-3.23 71.326-15.604 106.367-19.1 54.15-49.583 104.1-84.114 145.033-30.115 35.684-73.062 77.62-116.798 51.894-33.534-19.77-54.802-61.73-80.857-92.66-28.996-34.448-64.856-57.66-104.236-69.003-38.308-11.005-80.325-18.427-100.514-65.18-6.925-16.038-14.16-36.804-16.757-54.555-4.19-29.268-10.327-58.07-18.348-86.12h0z" class="C"/><path d="M688.426 378.96c-7.896-60.72-8.773-124.035 27.91-171.89 17.12-22.326 38.763-38.188 60.648-52.56 16.102-10.574 32.73-19.493 44.756-36.83 11.142-16.05 19.61-34.688 30.368-51.16 14.2-21.828 31.168-40.723 50.283-55.96 47.914-38.122 106.2-55.952 161.962-62.137 26.994-3.006 56.275-4.57 83.087 3.624 25.894 7.906 51.497 20.408 75.306 34.984 50.613 30.957 94.478 76.294 126.276 133.613 21.804 39.316 33.594 77.545 5.358 117.43-31.832 44.958-81.744 69.763-122.882 98.94-28.215 20.012-59.838 39.63-65.11 82.157-4.198 33.84-7.605 65.958-18.464 97.945-16.16 47.18-39.92 89.92-69.873 125.682-27.392 32.58-62.045 60.226-101.226 42.825-31.043-13.81-55.128-44.752-82.25-66.872-30.226-24.706-63.435-38.328-98.406-49.28-31.427-9.883-61.02-25.07-81.332-57.31-4.157-6.588-8.523-13.76-11.73-21.132-4.1-9.405-3.772-18.727-4.575-29.27-2.092-27.82-6.54-55.318-10.11-82.8z" class="E"/><path d="M719.066 373.996c.675-57.675 12.04-112.183 43.17-157.13 13.308-19.228 29.2-35.065 43.844-52.685 11.79-14.204 22.934-27.402 36.492-39.107 32.16-27.716 58.3-63.58 92.478-88.262 45.625-32.995 97.888-51.233 149.745-58.525 25.322-3.563 51.48-4.81 77.1-.784 22.003 3.456 43.075 15.6 62.623 28.004 38.313 24.317 75.513 58.88 100.4 102.606 54.846 96.403-53.288 166.493-108.788 207.538-25.524 18.88-64.525 40.75-74.98 78.15-7.474 26.718-12.027 53.89-21.652 79.782-25.855 69.537-78.34 151.323-148.282 140.435-29.93-4.652-57.207-23.55-85.146-36.237-28.77-13.066-58.46-20.35-88.363-28.343-27.946-7.465-50.22-18.09-68.27-46.572-8.627-13.602-7.865-29.885-8.634-46.572-1.255-27.41-2.03-54.978-1.727-82.298z" class="D"/><path d="M746.966 366.61c11.237-87.055 52.97-182.095 114.33-232.653 72.18-59.472 150.378-109.552 236.617-123.95 39.983-6.676 83.782-9.96 121.51 11.87 28.713 16.603 62.065 41.42 77.866 76.322 38.66 85.368-47.33 153.327-96.322 192.82-26.376 21.262-59.95 41.98-79.83 73.03-11.534 18.002-17.422 41.816-26.734 61.587-28.22 59.916-74.672 108.243-132.537 116.886-26.754 3.992-53.705-.947-80.257-4.873-27.18-4.017-54.697-6.198-81.71-11.804-21.562-4.478-46.972-12.06-54.914-40.22-10.014-35.486-2.607-83.467 1.98-119.018z" class="B"/><path d="M774.324 352.624c16.388-81.847 51.1-161.684 109.428-210.545 30.937-25.91 66.85-43.794 101.328-61.465 39.083-20.027 79.917-35.573 121.624-43.284 51.928-9.606 136.03-18.264 163.16 53.944 26.928 71.673-41.118 135.107-81.357 171.256-25.8 23.158-53.41 44.412-78.058 69.728-13.366 13.725-23.662 29.584-34.973 45.68-31.26 44.602-75.827 79.91-121.252 98.76-44.025 18.272-98.49 26.362-144.96 20.324-20.052-2.595-34.385-11.352-40.45-36.248-8.403-34.61-1.264-74.342 5.5-108.152z" class="E"/><path d="M801.5 330.58c16.28-72.063 51.395-137.883 102.614-181.134C961.538 100.96 1035.47 74.02 1103.42 60.32c36.12-7.277 114.39-27.007 132.8 29.46s-34.81 112.115-65.443 142.748c-37.178 37.123-77.26 72.966-117.296 106.273-34.784 28.96-71.9 58.568-109.578 80.932-21.25 12.687-43.385 23.046-66.144 30.953-16.853 5.808-38.283 14.472-55.952 10.148-44.566-10.92-28.084-95.797-20.298-130.253z" class="C"/><g class="B"><path d="M835.067 309c35.72-136.28 148.892-203.305 257.858-226.667 25.32-5.423 96.303-24.975 110.456 16.655 13.715 40.363-29.904 88.23-50.325 110.9-63.278 70.275-141.458 122.38-215.54 174-23.124 16.112-64.828 51.077-93.512 34.948-31.144-17.544-16.337-81.6-8.937-109.848z"/><path d="M871.655 282.77C902.72 182.4 993.07 124.85 1076.14 105.875c20.346-4.643 72.02-19.1 87.43 8.907 14.26 25.907-19.772 63.446-32.504 78.363-28.346 33.217-61.94 60.582-95.126 86.884-30.685 24.335-61.702 49.28-94 69.86-17.006 10.834-48.902 33.95-68.227 17.222-20.806-17.996-8.966-62.055-2.07-84.34z"/></g><path d="M911.974 253.45C935.65 187.9 999.063 145.35 1055 131.208c15.05-3.797 47.583-13.648 60.28 3.855 11.69 16.12-7.15 39.75-15.51 50.664-37.057 48.374-91.323 91.583-141.043 118.122-12.5 6.672-34.973 19.768-47.833 6.3-13.19-13.83-4.356-41.653 1.082-56.7z" class="D"/><path d="M954.747 225.918c13.342-32.544 48.21-57.098 77.095-64.914 20.328-5.496 44.762-.748 27.047 27.58-17.6 28.112-50.254 53.788-77.93 65.17-21.116 8.68-37.667.116-26.2-27.838z" class="E"/><path d="M-127.146 451.323c-.856-64.296-28.85-131.117-15.025-196.63 11.353-53.806 68.508-58.298 102.796-82.675 27.247-19.367 42.7-53.674 57.445-86.59C31.31 55.874 43.2 25.434 57.148-3.633c9.028-18.79 24.532-55.7 44.11-56.356 18.744-.642 35.932 28.112 46.82 45.1 14.196 22.156 26.782 45.776 40.567 68.286 23.23 37.97 51.105 66.073 83.02 92.67 36.32 30.265 73.24 59.496 110.76 87.694 27.624 20.823 55.437 41.5 82 64.37C481.07 312.497 517.83 339.433 518 365.9c.08 12.63-9.723 26.615-16.332 36.7-11.184 17.088-23.932 32.71-36.72 47.998-23.817 28.474-48.645 55.657-73.204 83.17-31.876 35.706-62.323 70.828-90.344 111.363-28.972 41.96-56.65 85.3-84.894 128.048-19.128 28.96-38.236 61.482-65.826 79.253-34.557 22.213-62.922-1.21-97.87-1.48-30.063-.24-27.847-85.275-31.667-108.92-3.834-23.933-12.283-46.212-15.557-70.203-4.083-29.947-4.137-60.585-5.14-90.853-1.22-37.022-1.705-72.268-34.12-86.386-18.448-8.022-38.404-9.708-57.5-14.513-12.37-3.118-35.703-8.45-35.972-28.762z" class="C"/><path d="M-112.366 439.886c-3.15-53.896-21.768-122.878-4.163-178.512 15.04-47.543 62.08-53.706 93.754-78.68 26.148-20.6 37.788-54.308 50.858-87.423C38.57 68.706 48.738 41.886 60.64 16.17c8.772-18.95 22.167-50.946 40.406-54.868 16.397-3.527 33.982 24.72 43.186 39.09 13.428 20.978 24.913 43.76 36.776 66.066 20.844 39.18 42.187 74.412 72.694 103.193 30.642 28.905 64.165 50.517 98.046 73.012 26.505 17.6 52.876 35.71 78.06 56.03 18.76 15.128 45.73 34.49 54.313 61.468 6.795 21.34-27.666 56.755-37.828 69.254-20.918 25.7-43.085 49.825-65.292 73.803-27.072 29.218-55.008 54.77-78.916 88.098-42.76 59.59-78.504 133.795-133.526 178.084C135.373 796.1 98.442 802.94 61.53 798.945c-14.616-1.582-18.125-26.77-19.967-41.462-3.064-24.406-3.448-49.232-5.803-73.737-2.207-22.94-7.105-44.733-11.053-67.227-3.995-22.79-5.115-46.142-8.057-69.09-1.822-14.246-3.624-30.825-11.593-42.278-8.246-11.857-21.85-16.825-33.74-20.6-22.33-7.02-81.46-6.633-83.686-44.667z" class="D"/><path d="M-93.344 417.324c-5.3-49.472-12.72-111.1 8.87-156.67 17.648-37.27 55.285-45.308 82.17-69.592C20.055 170.87 28.5 138.75 39.6 108.905c9.107-24.48 18.262-49.07 29.3-72.365 8.37-17.667 19.16-41.622 35.78-47.785 14.21-5.266 30.266 18.326 38.144 30.068 13.415 20.013 24.35 42.436 35.214 64.564 17.77 36.207 34.12 74.883 59.4 104.334 24.574 28.58 53.766 45.448 83.505 64.416 22.778 14.532 45.415 29.624 66.877 46.954 16.48 13.298 36.902 29.056 45.49 51.184 7.426 19.083-11.64 41.67-21.165 55.134-15.73 22.218-33.19 42.6-50.404 63.066-18.58 22.078-39.157 42.445-57.135 65.066-37.807 47.604-68.01 100.3-114.608 136.78-30.178 23.625-70.786 45.086-106.46 41.227-25.654-2.78-23.967-72.085-26.43-94.23-4.05-36.207-11.875-74.25-24.304-107.6-10.674-28.58-36.038-37.392-59.37-43.802-14.616-4.024-29.935-6.196-44.072-12.417-16.365-7.21-20.497-15.437-22.718-36.174z" class="B"/><path d="M-75.6 394.135c-3.155-41.826-2.446-91.286 17.994-127.467 17.913-31.69 49.805-40.035 72.488-65 17.703-19.477 24.656-51.235 34.176-76.992 11.635-31.493 27.94-89.66 57.292-101.512 27.305-11.018 55.86 59.364 65.745 80.35 15.65 33.218 28.737 69.647 47.717 100.323 16.345 26.4 38.244 41.01 61.488 56.698 29.636 20.038 74.63 43.8 90.475 82.852 11.81 29.1-26.595 72.362-39.7 92.524-13.717 21.062-24.048 46.027-38.204 66.346-22.338 32.063-58.535 57.878-88.42 77.578-29.055 19.163-66.785 40.374-99.745 39.11-21.663-.825-25.784-41.66-30.406-61.61-6.622-28.357-15.426-53.768-34.34-73.055C21.7 464.648-.99 455.397-24.843 447.3c-12.244-4.126-26.2-7.345-37.163-15.68-12.102-9.07-12.38-21.408-13.595-37.485z" class="E"/><path d="M-53.982 370.026c.175-36.135 6.944-74.667 27.014-102.54 16.716-23.217 42.882-30.977 58.884-54.71 12.675-18.8 19.127-45.168 27.613-66.99 10.38-26.74 25.054-73.452 50.863-82.732 25.19-9.034 47.468 42.417 57.126 62.776 14.143 29.852 25.593 61.495 39.864 91.265 11.18 23.356 24.852 38.4 43.057 53.463 21.37 17.68 51.186 37.268 62.602 66.52 8.23 21.18-11.692 55.023-18.925 73.682-4.85 12.532-9.288 25.26-11.726 38.845-1.9 10.578-2.088 20.367-7.6 29.45-13.854 22.847-44.23 25.828-64.838 33.36-27.37 9.995-56.412 21.352-85.056 23.52-17.605 1.355-26.6-18.445-36.638-32.373-11.874-16.466-28.684-28.308-43.367-40.734-19.377-16.425-40.464-26.64-62.28-37.104-9.84-4.722-21.397-9.354-29.02-18.74-7.96-9.732-7.644-23.915-7.584-36.956z" class="C"/><g class="B"><path d="M-31.276 348.575c3.48-30.348 14.32-59.354 32.63-80.808 14.037-16.47 32.678-25.745 43.943-45.535 10.497-18.448 17.812-39.424 26.482-59.148 9.176-20.853 22.808-55.706 43.97-61.38 22.808-6.11 40.377 29.047 50.106 48.533 12.3 24.625 21.628 51.12 32.617 76.59 8.28 18.986 18.84 36.35 31.33 51.514 13.1 15.985 30.864 31.295 37.492 53.276 5.86 19.47-5.104 43.023-7.04 62.764-2.07 21.09 1.557 43.245-9.917 61.355-23.664 37.35-83.053 30.422-117.005 31.22-33.5.824-60.434-22.03-87.543-43.772-17.906-14.355-36.554-26.5-54.913-39.885-18.715-13.646-25.215-28.018-22.154-54.726z"/><path d="M-10.18 331.205C.108 287.24 32.24 263.87 55.21 230.645c18.794-27.2 32.887-83.53 64.538-90.982 35.936-8.457 57.448 66.18 69.942 94.98 13.863 31.94 38.553 57.92 48.82 91.732 5.397 17.746.762 34.306-2.11 52.044-3.15 19.477-5.518 39.39-16.393 55.07-21.405 30.852-63.2 30.638-93.317 31.487-31.166.882-58.737-20.26-83.57-41.36-26.336-22.346-63.837-47.32-53.3-92.408z"/></g><path d="M7.05 319.283c11.592-31.324 35.952-56.8 55.72-80.83 16.498-20.042 34.247-60.387 59.4-63.263 29.565-3.392 47.483 39.7 59.116 66.106 11.45 25.958 27.948 53.365 34.287 81.855 6.61 29.677-10.994 69.646-27.785 90.646-18.727 23.417-49.365 32.07-75.655 31.136-27.526-.95-52.783-20.304-73.63-40.378-22.287-21.46-44.935-48.908-31.454-85.27z" class="C"/><path d="M23.04 313.385c11.073-26.053 30.267-48.093 47.965-67.752 13.658-15.177 33.81-40.985 53.515-41.617 21.677-.698 40.048 20.964 48.665 43.168 8.495 21.9 17.446 49.357 18.718 73.383 2.76 52.32-53.46 110.928-95.678 106.16C56.197 422.204.962 365.295 23.04 313.385z" class="B"/><path d="M37.826 310.513c15.276-33.946 52.38-82.34 86.732-83.49 39.43-1.313 49.328 52.54 44.19 91.567-5.22 39.832-50.68 97.486-86.93 89.695-35.378-7.602-62.096-57.515-43.992-97.773z" class="D"/><path d="M53.438 305.024c12.933-28.422 40.532-63.923 69.318-64.998 34.298-1.27 33.65 44.196 25.874 72.495-8.088 29.382-43.707 79.565-73.74 71.642-29.203-7.735-33.847-51.898-21.452-79.14z" class="C"/><path d="M67.036 301.753c8.537-20.28 29.903-45.913 50.215-46.733 24.827-.986 20 35.077 13.586 52.482-7.624 20.71-33.18 56.7-54.63 50.867-21.116-5.74-16.216-39.906-9.172-56.616z" class="B"/><path d="M1234.93 1460.507c-54.952 40.69-117.073 74.276-175.654 108.415-85.608 49.882-172.477 98.423-262.43 135.582-48.227 19.917-110.72 48.63-162.468 33.027-18.92-5.703-36.174-22.954-53.137-34.163-23.392-15.456-47.128-30.147-70.823-44.87l-141.93-90.136c-22.495-15.127-44.322-34.18-67.74-47.084-13.686-7.547-30.063-4.016-44.686-3.54-33.874 1.11-67.727 3.218-101.58 5.012-41.408 2.19-82.9 4.518-124.365 3.654-18.697-.395-64.49 3.654-74.782-16-5.538-10.584 7.514-29.67 13.564-38.5 11.11-16.23 23.877-30.854 36.477-45.33 29.14-33.48 60.085-65.363 85.986-102.76 13.308-19.225 30.744-42.714 22.056-68.96-8.77-26.51-23.958-49.463-33.226-75.88-10.67-30.402-15.095-62.038-20.134-94.275-3.73-23.826-12.418-44.936-20.586-66.902-9.025-24.28-18.373-48.763-24.64-74.367C10.695 926.516 4 896.09 18.5 885.382c20.586-15.226 59.188-2.897 82.654 1.588 32.43 6.19 64.624 14.073 96.967 20.863 23.48 4.938 47.04 10.353 70.9 10.93 38.48.93 77.09-2.288 115.468-5.284 71.066-5.547 141.622-13.07 212.927-13.07 62.47 0 206.836 88.202 240.63 103.732 67.45 31.003 136.695 60.392 200.523 101.64 17.267 11.168 43.843 26.048 52.928 49.035 5.605 14.164 3.03 22.353 16.25 31.48 18.036 12.452 41.145 17.34 61.1 22.912 32.154 8.97 64.557 16.567 96.86 24.7 65.332 16.386 130.22 34.92 195.282 52.755 19.67 5.39 43.465 6.584 62.216 16.082 12.087 6.098 10.833 13.777 1.477 23.044-16.41 16.263-39.41 25.29-58.796 34.566-28.403 13.588-57.272 25.71-86.154 37.66l-86.81 35.504c-19.088 7.884-40.855 14.296-58.007 26.995z" class="C"/><path d="M1189.71 1451.557c-58.128 40.772-122.65 73.253-184.854 104.943-79.608 40.583-161.018 78.62-244.897 103.987-49.25 14.885-107.357 31.32-157.68 14.25-17.952-6.09-31.364-19.78-46.753-31.863-17.54-13.79-35.756-26.423-53.972-38.86-37.497-25.6-75.4-50.325-113.678-74.176-20.28-12.684-42.604-29.67-65.515-34.072-18.216-3.503-38.907 1.566-57.203 3.04l-98.856 7.714c-38.037 2.68-76.18 5.15-114.3 4.723-21.245-.24-57.716 3.71-72.74-13.047-13.108-14.62 34.616-67.5 43.01-77.547 26.2-31.368 53.776-61.237 78.17-94.78 14.417-19.78 31.972-43.838 38.05-70.055 5.175-22.344-4.8-47.803-10.707-68.457-7.374-25.87-13.324-52.7-21.892-78.017-7.63-22.566-19.774-42.668-30.44-63.182-11.732-22.566-23.613-45.503-32.322-70.12-5.336-15.148-14.168-40.517-3.562-54.956 12.252-16.648 50.018-5.77 65.542-3.396 31.493 4.88 62.742 12.132 94.02 18.627 51.948 10.78 101.474 20.21 154.373 17.95 68.888-2.95 137.71-9.9 206.584-13.73 25.434-1.434 51.273-4.32 76.728-2.76 14.593.898 25.704 6.338 34.19 18.6 11.6 16.747 38.286 26.02 56.853 35.63 28.95 14.975 58.263 28.904 87.495 43.014 64.173 30.99 129.58 60.858 190.44 100.938 19.254 12.676 41.302 26.81 55.544 47.753 7.947 11.68 5.944 22.93 10.794 35.34 6.423 16.327 27.54 23.695 40.162 29.036 24.362 10.32 49.722 17.234 74.886 23.712 56.94 14.654 114.016 24.29 171.88 31.385 13.56 1.648 66.96 7.36 38.914 34.888-30.987 30.42-75.73 45.33-112.207 62.473-32.862 15.412-65.75 29.753-96.056 51.01z" class="D"/><path d="M1109.38 1444.017c-54.638 35.87-115.165 62.63-174 88.23-71.407 31.064-144.604 58.754-219.497 74.266-47.047 9.735-98.915 17.215-145.644 1.037-31.91-11.043-56.596-40.898-84.624-61.437s-57.19-39.82-87.225-55.89c-18.64-9.973-38.692-20.02-59.433-18.704-50.43 3.193-100.8 10.805-151.284 14.5-33.397 2.47-66.862 4.5-100.36 3.892-20.2-.362-47.952 1.12-65.835-11.85-19.768-14.343 85.49-136.805 95.437-150.59 24.942-34.56 55.144-80.43 50.322-129.58-4.613-46.987-24.604-82.067-47.215-118.883-12.832-20.943-53.983-76.89-38.733-104.13 8.712-15.57 37.43-10.18 51.072-9.118 26.887 2.1 53.625 6.583 80.37 10.484 38.996 5.653 79.066 14.384 118.23 16.943 27.272 1.777 54.705-.6 82.024-.65l117.515.724c32.89.362 66.058 0 98.834 3.85 20.376 2.37 35.842 7.694 50.457 22.736 12.717 13.084 31.905 20.745 48.114 29.064 26.772 13.734 53.895 26.464 80.93 39.4 56.603 27.1 113.855 53.61 168.033 87.465 24.732 15.446 66.315 37.07 72.116 74.52 2.094 13.504 3.634 19.338 14.44 27.015 15.338 10.895 33.708 15.808 50.916 20.08 40.117 9.957 81.396 8.468 121.446 18.31 16.3 4.057 37.605 12.812 18.985 32.858-21.727 23.444-53.355 36.33-79.383 50.813-12.994 7.225-26.38 13.99-38.72 22.81-9.475 6.797-17.587 15.51-27.278 21.83z" class="B"/><path d="M1005.894 1432.817c-50.48 29.134-105.3 50.316-159.137 69.412-59.798 21.182-121.038 38.727-183.088 46.192-42.845 5.172-88.496 6.698-130.08-9.13-26.298-10.014-44.127-31.072-66.756-48.732-34.154-26.692-71.106-47.842-112.137-42.695-46 5.757-92.153 10.077-138.456 12.958-27.93 1.74-55.968 3.044-83.93 1.83-17.68-.76-40.458-2.037-55.84-11.812-20.58-13.1 56.723-112.7 66.36-127.217 23.897-36.005 41.416-73.783 51.652-118.39 8.348-36.4-8.705-65.015-26.298-92.244-10.937-16.9-46.278-59.44-35.212-81.397 6.07-12.11 26.07-11.482 36.8-12.1 20.472-1.17 41.032.05 61.504.586 30.23.825 62.407-4.842 92.38-.28 66.426 10.096 132.683 18.84 199.52 25.76 36.844 3.81 73.91 7.275 110.425 14.625 13.11 2.64 26.65 5.436 39.07 11.408 7.99 3.836 12.347 10.368 19.1 15.73 32.15 25.52 74.12 38.653 110.33 55 48.14 21.743 96.534 43.148 143.39 68.834 24.646 13.51 59.07 29.035 76.028 56.6 5.125 8.33 2.94 14.996 6.163 23.005 3.71 9.238 14.976 11.993 22.252 14.567 16.514 5.848 85.637 14.69 53.783 48.996-15.2 16.34-34.565 26.824-51.7 39.667-6.204 4.652-12.252 9.33-17.424 15.606-8.65 10.525-17.175 16.53-28.7 23.203z" class="E"/><path d="M895.63 1420.204c-99.652 47.135-216.44 79.247-325.084 73.026-36.13-2.077-75.002-9.007-106.32-32.722-18.467-14.01-33.224-29.822-55.407-34.88-16.014-3.65-33.258.494-49.366 1.994l-70.043 5.694c-28.967 1.92-58.03 3.403-87.05 2.612-20.737-.57-49.373.074-67.387-13.522-21.507-16.217 33.237-92.292 40.94-105.847 18.67-32.854 31.758-64.687 36.488-104.282 1.392-11.536 6.08-23.36 5.473-34.99-.635-11.874-6.63-22.447-12.163-31.783-7.237-12.237-32.346-41.26-25.156-56.183 3.973-8.24 18.886-9.28 26.616-11.026 14.5-3.296 29.2-5.068 43.8-7.688 24.75-4.466 49.326-19 74.164-18.598 66.792 1.088 134.55 26.37 200.006 40.254 38.913 8.282 78.1 15.797 116.53 27.012 12.163 3.552 24.7 7.227 36.25 13.25 8.068 4.203 13.25 11.693 20.724 16.398 28.656 18.07 61.6 29.04 92.38 41.202l119.7 48.008c24.866 10.556 56.84 19.843 78.266 39.422 15.65 14.297 4.953 18.574-3.304 31.9-4.216 6.8-3.243 13.48-5.074 21.17-2.615 10.976-10.007 18.88-16.94 25.982-9.56 9.814-22.298 17.898-30.116 29.93-2.757 4.236-2.628 9.493-4.858 13.185-6.487 10.754-23.697 16.06-33.07 20.494z" class="C"/><path d="M789.68 1403.41c-80.878 29.634-170.87 46.508-256.36 38.677-29.745-2.728-59.672-9.067-87.38-23-12.606-6.314-22.07-13.354-35.883-13.733-32.052-.874-64.205 2.184-96.25 2.918-22.933.528-45.98.717-68.86-1.533-15.297-1.5-35.984-3.297-48.516-14.747-18.21-16.676 14.663-73.364 21.354-89.026 11.09-25.974 22.1-54.85 17.692-84.904-1.35-9.19-3.737-17.31-4.047-26.683-.297-8.054.533-15.49-1.808-23.188-2.894-9.546-15.763-24.358-11.338-33.146 3.015-6 11.96-6.28 17.908-8.202 9.65-3.114 19.07-7.2 28.167-12.216 9.578-5.31 17.732-13.5 27.654-17.896 16.107-7.106 34.136-7.773 51.066-7.74 67.55.133 135.957 16.397 201.795 33.402 34.284 8.853 68.758 18.292 102.078 31.72 10.117 4.08 21.584 8.177 30.48 15.71 5.55 4.7 9.315 10.568 15.62 14.096 53.872 30.12 116.154 41.306 173.344 63.06 14.886 5.663 97.383 34.275 54.25 61.19-26.204 16.354-53.892 23.8-77.803 46.162-7.285 6.8-12.14 12.43-14.987 22.81-1.875 6.908 2.637 3.404-3.662 10.625-7.642 8.68-25.09 12.183-34.514 15.637z" class="E"/><g class="B"><path d="M705.585 1385.888c-94.7 24.188-194.967 25.34-291.152 3.896-24.247-5.4-49.482-4.11-74.027-5.482-23.848-1.315-66.25 1.422-83.57-20.958-12.56-16.224 1.07-50.703 5.783-68.85 6.006-23.12 11.255-47.004 1.393-69.458-5.776-13.15-13.7-25.668-19.885-38.695-2.962-6.222-9.063-15.756-6.52-21.65 4.207-9.723 23.89-13.816 33.44-18.402 30.524-14.654 62.847-18.394 95.482-18.29 60.277.19 120.865 10.25 179.993 23.895 27.203 6.28 54.785 12.978 81.02 23.892 14.846 6.172 25.796 18.082 39.973 25.142 45.647 22.75 94.7 34.906 141.122 55.708 13.44 6.024 63.64 26.08 38.35 49.725-24.484 22.9-60.196 20.17-85.654 41.703-2.88 2.466-6.446 5.416-8.116 9.402-.987 2.383.75 6.92 0 8.276-7.82 14.737-35.6 17.08-47.63 20.145z"/><path d="M644.237 1369.902c-48.58 8.13-98.226 10.148-147.622 10.66-27 .28-56.666 2.38-83.085-5.966-16.23-5.14-31.903-9.635-48.633-12.875-18-3.487-46.983-6.024-57.944-24.923-8.19-14.123-2.576-43.153-2.28-60.325.318-18.833-2.847-32.798-13.74-46.276-6.85-8.487-38.273-39.294-34.642-48.177 3.455-8.462 25.35-9.76 34.818-11.957 29.922-6.975 60.243-9.404 90.68-9.024 47.138.578 94.452 6.446 140.854 16.527 19.184 4.2 39 8.528 57.335 16.9 12.34 5.644 22.633 15.65 34.892 21.485 35.11 16.734 72.232 28.096 107.463 45.136 11.306 5.48 48.146 20.064 39.315 42.54-7.364 18.767-32.41 24.477-44.717 37.054-20.935 21.452-45.995 24.758-72.692 29.22z"/></g><path d="M613.634 1359.117c-38.536 5.383-77.967 7.737-117.068 7.853-25.235.074-51.857.494-76.62-6.43-12.44-3.474-23.248-11.598-35.02-17.393-12.122-5.96-28.85-12.6-34.09-26.274-4.923-12.84-3.084-31.575-7.408-47.058-3.845-13.738-11.893-22.224-20.56-31.51-5.522-5.935-33.882-31.625-30.602-37.296 3.515-6.075 20.547-5.58 29.4-6.42a560.56 560.56 0 0 1 73.408-2.247c33.417 1.25 67.09 4.74 99.93 12.643 23.295 5.597 40.866 18.932 62.585 28.71 28.137 12.7 57.285 22.743 85.153 36.637 13.887 6.923 34.44 15.83 41.553 33.7 2.734 6.848 5.388 24.266 2.344 31.114-3.657 8.23-17.268 11.72-23.692 13.837-16.096 5.276-32.94 7.844-49.318 10.133z" class="C"/></g></svg>